<svg width="100" height="50" viewBox="0 0 100 50" fill="none" xmlns="http://www.w3.org/2000/svg">
<ellipse cx="86.5" cy="37.5" rx="13.5" ry="12.5" fill="#43DB7F"/>
<path d="M86.5043 42.5054C89.4637 42.5054 91.6486 40.464 91.6486 37.6319C91.6486 34.7997 89.4637 32.7583 86.5043 32.7583C83.5647 32.7583 81.3799 34.7997 81.3799 37.6319C81.3799 40.464 83.5647 42.5054 86.5043 42.5054ZM86.5043 40.8135C84.6968 40.8135 83.4654 39.4893 83.4654 37.6319C83.4654 35.7744 84.6968 34.4503 86.5043 34.4503C88.3117 34.4503 89.5631 35.7744 89.5631 37.6319C89.5631 39.4893 88.3117 40.8135 86.5043 40.8135Z" fill="black"/>
<ellipse cx="67.5" cy="37.5" rx="5.5" ry="12.5" fill="#43DB7F"/>
<path d="M68.605 32.7583C67.9496 32.7583 67.3993 33.4572 67.1161 34.7997V32.9238H66.2988V42.1192H67.1242V37.6319C67.1242 35.6824 67.6664 34.7261 68.3623 34.7261C68.4837 34.7261 68.5565 34.7445 68.6698 34.7813V32.7583H68.605Z" fill="black"/>
<ellipse cx="55" cy="37.5" rx="7" ry="12.5" fill="#43DB7F"/>
<path d="M57.6038 37.9813V37.6319C57.6038 34.8916 56.6769 32.7583 55.1115 32.7583C53.5975 32.7583 52.5059 34.7077 52.5059 37.6319C52.5059 40.5744 53.5563 42.5054 55.1115 42.5054C56.3576 42.5054 57.3051 41.1077 57.5626 39.1951H56.5018C56.3061 40.2801 55.853 40.887 55.1115 40.887C54.267 40.887 53.5975 39.802 53.5357 37.9813H57.6038ZM55.1012 34.3215C55.8839 34.3215 56.4606 35.2595 56.5636 36.6755H53.5563C53.6799 35.1859 54.3391 34.3215 55.1012 34.3215Z" fill="black"/>
<ellipse cx="24" cy="37.5" rx="24" ry="12.5" fill="#43DB7F"/>
<path d="M24.4877 42.5054C29.0427 42.5054 32.3619 41.0158 32.9975 38.7537H29.4311C28.8662 40.0595 27.1007 40.8135 24.4877 40.8135C21.4863 40.8135 19.1558 39.5997 19.1558 37.6135C19.1558 35.6824 21.451 34.4503 24.4877 34.4503C27.1007 34.4503 28.8309 35.2043 29.3605 36.4365H32.9269C32.256 34.1744 28.8662 32.7583 24.4877 32.7583C19.4383 32.7583 15.4482 34.7077 15.4482 37.6319C15.4482 40.556 19.3677 42.5054 24.4877 42.5054Z" fill="black"/>
<ellipse cx="90" cy="12.5" rx="10" ry="12.5" fill="#43DB7F"/>
<path d="M89.226 17.5054C90.403 17.5054 91.2269 16.825 91.7125 15.979C91.7125 16.2732 91.7125 16.9353 91.7272 17.2296H93.1984V17.1928C93.169 16.9721 93.1249 16.1813 93.1249 15.6112V11.2158C93.1249 9.00888 91.9773 7.7583 90.1088 7.7583C88.2256 7.7583 87.078 9.13761 86.9014 10.9767H88.358C88.5051 9.94681 89.123 9.30313 90.1088 9.30313C91.1534 9.30313 91.7272 10.0572 91.7272 11.2342V11.6204L90.8297 11.6572C88.6228 11.7491 86.666 12.3928 86.666 14.6916C86.666 16.4572 87.7989 17.5054 89.226 17.5054ZM89.6085 16.0526C88.7846 16.0526 88.1961 15.5192 88.1961 14.5813C88.1961 13.2939 89.5056 12.9629 91.0651 12.8526C91.3593 12.8342 91.5653 12.8342 91.7272 12.8342V13.5882C91.7272 14.8204 90.9327 16.0526 89.6085 16.0526Z" fill="black"/>
<ellipse cx="62.5" cy="12.5" rx="17.5" ry="12.5" fill="#43DB7F"/>
<path d="M66.3156 9.54478C65.4917 8.55168 63.9726 7.81605 62.0674 7.81605C58.4628 7.81605 55.8623 9.94938 55.8623 12.7816C55.8623 15.5218 58.2825 17.5632 61.8871 17.5632C63.9469 17.5632 65.4917 16.7724 66.3156 15.7609V17.2873H68.9161V4.59766H66.3156V9.54478ZM62.4793 15.8712C60.1621 15.8712 58.5658 14.5287 58.5658 12.6896C58.5658 10.8505 60.1363 9.508 62.4793 9.508C64.6936 9.508 66.3414 10.7402 66.3414 12.6896C66.3414 14.639 64.6936 15.8712 62.4793 15.8712Z" fill="black"/>
<ellipse cx="31" cy="12.5" rx="14" ry="12.5" fill="#43DB7F"/>
<path d="M32.0097 8.0459C30.5885 8.0459 29.4144 8.70797 28.7553 9.60912V8.32176H26.6543V17.5172H28.7553V11.9631C28.7553 10.8045 29.7234 9.75624 31.2064 9.75624C32.7924 9.75624 33.4309 10.731 33.4309 11.9815V17.5172H35.5525V11.4114C35.5525 9.33326 34.1313 8.0459 32.0097 8.0459Z" fill="black"/>
<ellipse cx="8.5" cy="12.5" rx="8.5" ry="12.5" fill="#43DB7F"/>
<path d="M8.50285 17.5054C10.3662 17.5054 11.7418 15.464 11.7418 12.6319C11.7418 9.79968 10.3662 7.7583 8.50285 7.7583C6.652 7.7583 5.27637 9.79968 5.27637 12.6319C5.27637 15.464 6.652 17.5054 8.50285 17.5054ZM8.50285 15.8135C7.36483 15.8135 6.58947 14.4893 6.58947 12.6319C6.58947 10.7744 7.36483 9.45026 8.50285 9.45026C9.64087 9.45026 10.4287 10.7744 10.4287 12.6319C10.4287 14.4893 9.64087 15.8135 8.50285 15.8135Z" fill="black"/>
</svg>
